<svg xmlns="http://www.w3.org/2000/svg" xmlns:xlink="http://www.w3.org/1999/xlink" width="300" height="75" viewBox="0 0 300 75">
    <defs>
        <path id="prefix__a" d="M0 74.009L299.778 74.009 299.778 0 0 0z"/>
    </defs>
    <g fill="none" fill-rule="evenodd">
        <path fill="#EC1C24" d="M201.39 71.764c0 1.237-.999 2.245-2.225 2.245-1.23 0-2.228-1.008-2.228-2.245 0-1.234.998-2.24 2.228-2.24 1.226 0 2.226 1.006 2.226 2.24"/>
        <path fill="#231F20" d="M196.292 61.6l-6.542 12.41h4.3l2.394-4.812h-.012l2.368-4.724h.754l2.377 4.724h-.026l2.405 4.811h4.26L202.125 61.6h-5.833zm-12.566 5.164c-.393-.227-.93-.387-1.602-.47-.674-.072-2.014-.148-4-.22-2.374-.063-3.703-.14-3.984-.213-.348-.098-.532-.37-.532-.798 0-.448.184-.734.532-.844.343-.1 1.315-.161 2.919-.161 1.324 0 2.182.027 2.59.06.408.014.695.075.86.184.128.07.212.188.262.313.05.11.08.35.087.695h3.647v-.592c0-1.107-.219-1.91-.632-2.385-.414-.477-1.196-.793-2.34-.949-.726-.097-1.999-.153-3.817-.153-2.565 0-4.257.063-5.109.191-.833.118-1.448.41-1.849.843-.532.58-.796 1.567-.796 2.98 0 1.262.229 2.132.695 2.674.27.322.65.547 1.137.695.475.138 1.178.221 2.078.253.468.011 1.465.065 3.01.135 1.5.068 2.465.112 2.94.112.6.007 1.002.084 1.204.201.19.122.29.359.29.746 0 .502-.146.82-.423.937-.172.067-.438.121-.755.139-.317.01-1.278.03-2.857.037-1.515-.027-2.417-.037-2.71-.055-.293-.023-.509-.082-.699-.215-.259-.171-.374-.565-.368-1.177h-3.643v.576c0 .894.09 1.558.264 1.994.185.424.497.793.968 1.047.439.249 1.105.434 2 .52.885.1 2.255.145 4.107.145 2.223 0 3.728-.033 4.555-.113.755-.062 1.34-.207 1.755-.412.422-.207.749-.513.995-.944.303-.568.468-1.424.468-2.613 0-.873-.1-1.559-.29-2.044-.178-.476-.506-.845-.957-1.12zm-24.655 2.29h9.471v-2.74h-9.471v-1.8h9.972V61.6H155.39v12.41h13.747v-2.973h-10.065v-1.983zm61.876-1.928c0 .353-.02.817-.044 1.37-.043.536-.088.911-.137 1.137-.058.232-.164.42-.29.568-.21.236-.569.383-1.075.443-.491.077-1.396.119-2.674.119-1.615 0-2.661-.072-3.182-.217-.533-.162-.838-.48-.933-.964-.074-.333-.12-1.159-.13-2.456v-5.704h-3.796v5.704c.013 1.44.024 2.384.048 2.777.026.4.083.84.167 1.336.226 1.29.985 2.085 2.305 2.397.59.155 1.3.233 2.11.29.81.05 1.96.083 3.451.083 1.973 0 3.413-.044 4.28-.145.856-.086 1.532-.278 1.996-.57.846-.487 1.337-1.235 1.498-2.282.074-.615.144-1.898.177-3.886v-5.704h-3.77v5.704zm21.386-2.358h5.475v9.241h3.962v-9.241h5.467V61.6h-14.904v3.168zm-4.23 4.264c-.01.766-.132 1.251-.347 1.475-.17.169-.492.272-.968.304-.48.069-1.434.08-2.865.08-1.164 0-1.965-.011-2.427-.08-.457-.052-.793-.156-.994-.324-.224-.17-.377-.433-.466-.834-.063-.384-.097-1.043-.097-1.993 0-.936.04-1.606.126-2.047.083-.438.244-.742.46-.923.178-.142.506-.25.951-.318.45-.043 1.255-.06 2.424-.06 1.18 0 2.054.017 2.638.082.588.06.942.154 1.08.286.11.073.19.19.213.34.037.135.06.417.077.82h3.755c.014-.362.026-.561.026-.607 0-1.022-.12-1.801-.345-2.32-.239-.53-.63-.924-1.184-1.205-.428-.201-1.014-.324-1.732-.414-.715-.063-1.873-.095-3.459-.095-3.18 0-5.295.115-6.335.348-1.051.238-1.755.744-2.088 1.534-.156.35-.256.843-.32 1.49-.048.625-.073 1.673-.073 3.112 0 1.471.025 2.495.074 3.05.066.706.216 1.242.434 1.654.218.406.565.723 1.008.957.509.265 1.256.447 2.25.525.99.096 2.663.14 5.007.14 2.238 0 3.806-.113 4.7-.328.908-.222 1.529-.625 1.83-1.236.284-.544.428-1.278.428-2.244 0-.168 0-.579-.029-1.169h-3.752zm-98.486-4.264h5.48v9.241h3.952v-9.241h5.468V61.6h-14.9v3.168zm-71.844 4.286h9.452v-2.74h-9.452v-1.8h9.956V61.6h-13.64v12.41h13.743v-2.973H67.773v-1.983zm21.689.609L85.789 61.6H78.98v12.41h3.705l-.1-9.261h.666l4.654 9.26h3.117l4.654-9.26h.61l-.102 9.26h3.71V61.6H93.11l-3.65 8.063zm168.651 4.346h3.944V61.6h-3.944v12.41zm-156.497 0h3.955V61.6h-3.955v12.41zm17.129-6.912c-.072.212-.176.358-.338.463-.127.086-.275.136-.448.136-.173.015-.726.038-1.626.062h-5.26v-3.052h5.26c.852.012 1.364.012 1.545.034.18.009.327.038.467.106.186.1.3.239.395.433.06.2.103.497.103.913 0 .413-.043.716-.098.905zm3.715.52c.1-.422.158-1.08.158-1.99 0-1.07-.084-1.842-.256-2.362-.174-.5-.496-.895-.953-1.17-.399-.24-.793-.393-1.222-.437-.426-.038-1.697-.058-3.806-.058h-9.09v12.41h3.781v-3.15h5.27c.777 0 1.286.03 1.53.067.25.024.434.13.572.27.14.17.23.382.296.684.036.294.06.78.06 1.463v.665h3.694v-1.156c0-1.059-.034-1.781-.079-2.11-.053-.336-.182-.622-.384-.858-.337-.397-.91-.636-1.687-.676.666-.115 1.157-.298 1.497-.568.301-.253.506-.6.62-1.024zM295.294 61.6l.086 9.26h-.388l-6.461-9.26h-6.579v12.41h3.815l-.08-9.261h.408l6.487 9.26h6.527V61.6h-3.815zm-18.714 7.982c-.08.32-.227.566-.445.734-.236.191-.607.312-1.101.36-.483.057-1.494.087-2.99.087-1.613 0-2.687-.034-3.238-.1-.753-.1-1.201-.462-1.36-1.081-.077-.347-.111-.884-.111-1.633 0-1.256.071-2.088.215-2.505.138-.424.448-.695.905-.822.391-.095 1.592-.148 3.572-.148 1.72 0 2.826.023 3.271.096.463.06.784.226.98.493.161.216.27.526.327.948.058.397.084 1.065.084 1.958 0 .743-.035 1.28-.11 1.613zm.922-8.16c-1.003-.128-2.833-.191-5.482-.191-2.665 0-4.507.063-5.498.191-1.437.198-2.31.89-2.637 2.078-.233.802-.337 2.157-.337 4.052 0 1.972.104 3.375.337 4.192.327 1.187 1.2 1.877 2.637 2.077.99.125 2.853.188 5.522.188 2.637 0 4.455-.063 5.458-.188 1.425-.2 2.321-.89 2.646-2.077.21-.817.327-2.196.327-4.134 0-1.923-.117-3.298-.327-4.11-.325-1.189-1.221-1.88-2.646-2.078zm-148.053 7.776l2.377-4.724h.747l2.375 4.724h-5.5zm-.15-7.598l-6.53 12.41h4.29l1.054-2.11h8.158l1.053 2.11h4.252l-6.443-12.41H129.3z"/>
        <path fill="#EC1C24" d="M121.947 37.028c0 1.242-.996 2.231-2.221 2.231-1.236 0-2.219-.99-2.219-2.23 0-1.247.983-2.23 2.219-2.23 1.225 0 2.22.983 2.22 2.23"/>
        <path fill="#231F20" d="M289.657 41.953c0 .349-.02.8-.044 1.374-.04.521-.083.901-.134 1.123-.072.239-.158.43-.293.57-.201.216-.563.372-1.069.459-.5.078-1.39.112-2.686.112-1.583 0-2.64-.092-3.163-.23-.308-.092-.523-.237-.698-.418v3.736c.166.02.33.02.48.033.807.06 1.95.088 3.433.088 1.962 0 3.379-.043 4.235-.154.864-.086 1.524-.271 2.005-.54.83-.497 1.32-1.255 1.47-2.286.087-.6.147-1.9.184-3.867v-5.666h-3.72v5.666z"/>
        <mask id="prefix__b" fill="#fff">
            <use xlink:href="#prefix__a"/>
        </mask>
        <path fill="#231F20" d="M284.032 44.679L287.275 44.679 287.275 35.908 284.032 35.908zM212.855 45.53h-15.622c-.966 0-1.657-.031-2.113-.098-.449-.06-.764-.176-.957-.334-.194-.16-.34-.44-.419-.817-.095-.384-.135-.953-.135-1.708 0-.287.005-.547.02-.773h-3.704v.522c0 1.113.02 1.949.092 2.513.049.556.16 1.07.305 1.539.37 1.08 1.114 1.762 2.25 2 .535.132 1.125.21 1.715.24.617.045 1.605.065 2.976.065h19.28V41.8h-3.688v3.73zM219.028 48.8L222.283 48.8 222.283 36.46 219.028 36.46zM225.199 49.336c0 .695-.026 1.163-.06 1.393-.084.455-.394.668-.92.668h-.451v2.23c.325.025.67.03 1.02.03.99 0 1.758-.106 2.249-.273.506-.194.885-.533 1.115-.996.124-.26.204-.543.241-.843.046-.31.06-.88.06-1.737v-8.232h-3.254v7.76zM181.215 41.953c0 .349-.009.8-.045 1.374-.024.521-.064.901-.122 1.123-.064.239-.162.43-.297.57-.198.216-.563.372-1.072.459-.495.078-1.388.112-2.67.112-1.602 0-2.658-.092-3.176-.23-.533-.142-.842-.472-.932-.95-.07-.324-.115-1.127-.134-2.37v-5.754h-3.724V43.597c0 .526-.032.894-.071 1.092-.038.2-.144.355-.266.487-.325.276-11.5.415-12.814.415-.82 0-3.188-.07-4.83-.174.039-.383.039-.823.039-1.385 0-1.103-.077-1.901-.226-2.416-.16-.5-.45-.912-.879-1.22-.128-.09-.289-.18-.45-.255-.026-.016-.053-.027-.083-.036-.12-.066-.242-.099-.376-.14-.035-.008-.053-.008-.09-.028h-.025c-.213-.069-.452-.118-.7-.171-.726-.138-1.83-.168-3.308-.168h-.034c-1.473 0-2.572.03-3.311.168-.253.053-.474.102-.688.171h-.047c-.01.02-.05.02-.067.028-.134.041-.265.074-.376.14-.038.009-.067.02-.095.036-.165.075-.305.165-.441.256-.432.307-.719.72-.875 1.22-.16.514-.234 1.312-.234 2.415 0 .562.02 1.002.036 1.385-1.63.103-14.054.174-14.88.174-1.334 0-2.15-.14-2.459-.415-.103-.08-.168-.182-.217-.296v-3.304h-3.26v7.76c0 .695-.019 1.163-.057 1.393-.088.455-.381.668-.92.668h-.439v2.23c.334.025.659.03 1.009.03.996 0 1.762-.105 2.259-.273.505-.194.87-.533 1.101-.996.13-.26.216-.543.255-.843.032-.31.052-.88.052-1.737v-1.096c.667.06 1.464.088 2.406.088 2.064 0 13.608-.108 14.532-.338.57-.13 1.024-.38 1.353-.745.348.4.826.658 1.434.789.09.031.191.054.303.074.062.015.123.025.186.034.589.098 1.506.157 2.73.186H145.67c1.233-.029 2.15-.088 2.74-.186.066-.01.111-.02.196-.034.09-.02.203-.043.297-.074.596-.131 1.074-.39 1.42-.79.335.366.787.616 1.36.746.933.23 2.408.338 4.473.338 1.707 0 13.293-.088 14.063-.257.296-.066.565-.168.809-.279.16.068.331.11.518.164.58.132 1.287.231 2.088.284.8.06 1.937.088 3.407.088 1.972 0 3.395-.043 4.247-.154.861-.086 1.54-.271 2.002-.54.833-.497 1.319-1.255 1.47-2.286.085-.6.142-1.9.182-3.867v-5.666h-3.726v5.666zm-33.415 2.98c-.065.394-.172.694-.337.887-.09.074-.198.165-.327.215-.405.19-1.127.291-2.19.291-1.043 0-1.79-.1-2.186-.291-.128-.05-.23-.14-.316-.215-.175-.193-.283-.493-.347-.887-.01-.204-.026-.426-.026-.678 0-.583.061-1.015.173-1.296.105-.292.286-.486.533-.627h.018c.285-.118.701-.201 1.242-.243.277-.013.569-.02.909-.02.342 0 .649.007.914.02.547.042.963.125 1.245.243h.02c.247.14.43.335.533.627.114.28.17.713.17 1.296 0 .252-.01.474-.028.678zM277.981 40.397c-.419-.302-.99-.516-1.729-.63-.724-.138-1.818-.169-3.298-.169-1.934 0-3.286.114-4.068.34-.787.217-1.339.647-1.672 1.295-.164.293-.276.658-.324 1.021-.06.372-.086.93-.086 1.66 0 .576.005 1.07.045 1.503-1.637.104-28.499.174-29.329.174-1.33 0-2.149-.14-2.474-.415-.14-.132-.232-.288-.278-.487-.04-.199-.063-.566-.063-1.092v-7.31h-3.726v7.385c0 1.163.052 2 .163 2.571.106.537.31.996.635 1.35.394.463.982.782 1.756.95.764.17 2.002.258 3.72.258 2.06 0 28.03-.109 28.947-.338.583-.153 1.045-.39 1.376-.763.077.087.144.158.227.224.422.34.977.582 1.675.69.704.116 1.865.187 3.484.187 1.833 0 3.135-.101 3.928-.295.954-.225 1.572-.73 1.887-1.55.121-.326.21-.689.25-1.092.04-.413.055-1.029.055-1.832 0-1.103-.069-1.901-.224-2.415-.158-.495-.442-.913-.877-1.22m-2.665 5.537c-.34.253-1.123.393-2.354.393-1.068 0-1.812-.101-2.217-.292-.27-.13-.454-.313-.543-.553-.098-.246-.147-.67-.147-1.227 0-.583.058-1.015.17-1.296.112-.293.313-.525.58-.64.376-.172 1.1-.25 2.167-.25 1 0 1.709.078 2.123.263.275.102.47.321.568.59.112.263.175.675.175 1.248 0 .91-.175 1.501-.522 1.764M86.9 45.53H71.286c-.967 0-1.672-.031-2.111-.098-.453-.06-.778-.176-.953-.334-.204-.16-.348-.44-.447-.817-.078-.384-.113-.953-.113-1.708 0-.287 0-.547.009-.773h-3.698v.522c0 1.113.031 1.949.08 2.513.061.556.17 1.07.32 1.539.363 1.08 1.12 1.762 2.26 2 .526.132 1.103.21 1.713.24.599.045 1.588.065 2.965.065H90.6V41.8h-3.7v3.73zM111.821 48.8L115.08 48.8 115.08 36.46 111.821 36.46zM93.052 48.8L96.305 48.8 96.305 36.46 93.052 36.46zM106.463 39.2c-.482-.067-1.548-.104-3.217-.104h-4.59v3.092h4.599c1.143.01 1.78.05 1.954.114.22.094.377.24.472.452.086.209.13.53.13.958 0 .451-.036.766-.11.977-.067.2-.189.345-.392.47-.14.077-.314.11-.503.143-.183.012-.698.025-1.551.025h-4.598v3.09h4.628c1.449 0 2.44-.03 2.98-.085.747-.08 1.33-.226 1.77-.463.42-.205.755-.542.992-.93.355-.634.534-1.703.534-3.227 0-1.591-.218-2.72-.63-3.335-.431-.626-1.258-1.019-2.468-1.177M77.15 37.028c0 1.242-1.003 2.231-2.233 2.231-1.223 0-2.22-.99-2.22-2.23 0-1.247.997-2.23 2.22-2.23 1.23 0 2.233.983 2.233 2.23M82.207 37.028c0 1.242-1.001 2.231-2.222 2.231-1.234 0-2.225-.99-2.225-2.23 0-1.247.99-2.23 2.225-2.23 1.22 0 2.222.983 2.222 2.23M203.14 37.069c0 1.236-.992 2.236-2.237 2.236-1.215 0-2.21-1-2.21-2.236 0-1.244.995-2.235 2.21-2.235 1.245 0 2.238.99 2.238 2.235M208.197 37.069c0 1.236-.994 2.236-2.235 2.236-1.212 0-2.215-1-2.215-2.236 0-1.244 1.003-2.235 2.215-2.235 1.24 0 2.235.99 2.235 2.235M53.827 30.842L53.827 15.96 26.915 0 0 15.96 0 30.842 26.915 14.877z" mask="url(#prefix__b)"/>
        <path fill="#EC1C24" d="M53.827 51.917L53.827 37.04 26.915 21.076 0 37.04 0 51.917 26.915 35.953z" mask="url(#prefix__b)"/>
        <path fill="#231F20" d="M53.827 72.988L53.827 58.114 26.915 42.157 0 58.114 0 72.988 26.915 57.024z" mask="url(#prefix__b)"/>
        <path fill="#EC1C24" d="M30.511 70.313c0 2.041-1.614 3.696-3.601 3.696-1.977 0-3.594-1.655-3.594-3.696 0-2.04 1.617-3.691 3.594-3.691 1.987 0 3.601 1.652 3.601 3.691" mask="url(#prefix__b)"/>
        <path fill="#231F20" d="M295.845 48.679L299.778 48.679 299.778 36.342 295.845 36.342z" mask="url(#prefix__b)"/>
    </g>
</svg>
